# xmcd CD database file
#
# Track frame offsets:
#	187
#	86565
#	100187
#	160955
#	248112
#	286040
#
# Disc length: 4303 seconds
#
# Revision: 4
# Processed by: cddbd v1.5.1PL2 Copyright (c) Steve Scherf et al.
# Submitted via: CDex 1.51
#
DISCID=4310cd06
DTITLE=Chick Corea - An Evening with Chick Corea and Herbie Hancock
DYEAR=1979
DGENRE=Jazz
TTITLE0=Homecoming
TTITLE1=Ostinato
TTITLE2=The Hook
TTITLE3=Bouquet
TTITLE4=Maiden Voyage
TTITLE5=La Fiesta
EXTD=YEAR: 1979
EXTT0=
EXTT1=
EXTT2=
EXTT3=
EXTT4=
EXTT5=
PLAYORDER=
